<svg xmlns="http://www.w3.org/2000/svg" width="256" height="256" viewBox="0 0 256 256" role="img" aria-label="MentorBot logo">
  <defs>
    <radialGradient id="g" cx="30%" cy="25%" r="80%">
      <stop offset="0%" stop-color="#7dd3fc" stop-opacity="1"/>
      <stop offset="55%" stop-color="#34d399" stop-opacity="0.95"/>
      <stop offset="100%" stop-color="#0b1020" stop-opacity="1"/>
    </radialGradient>
    <filter id="shadow" x="-30%" y="-30%" width="160%" height="160%">
      <feDropShadow dx="0" dy="10" stdDeviation="12" flood-color="#000000" flood-opacity="0.45"/>
    </filter>
  </defs>

  <rect x="16" y="16" width="224" height="224" rx="56" fill="url(#g)" filter="url(#shadow)"/>
  <rect x="28" y="28" width="200" height="200" rx="48" fill="none" stroke="rgba(255,255,255,0.16)" stroke-width="2"/>

  <g fill="rgba(255,255,255,0.92)">
    <path d="M68 164V92h18l22 38 22-38h18v72h-16v-44l-18 31h-12l-18-31v44H68z"/>
    <path d="M166 164V92h28c9 0 16 2 21 6s7 10 7 17c0 5-2 10-6 13 6 3 9 8 9 15 0 7-3 12-8 16s-13 5-22 5h-29zm16-42h12c5 0 9-1 11-2s3-4 3-7-1-6-3-7-6-2-11-2h-12v18zm0 30h13c6 0 10-1 12-2s4-4 4-8-1-6-4-8-7-2-12-2h-13v20z"/>
  </g>
</svg>
